<?xml version="1.0" encoding="UTF-8" standalone="no"?>
<svg
   viewBox="0 0 399.99998 800.00123"
   version="1.1"
   id="svg7"
   sodipodi:docname="GoldCrestlogo.svg"
   width="105.83334mm"
   height="211.66701mm"
   inkscape:version="1.4.2 (f4327f4, 2025-05-13)"
   inkscape:export-filename="images\GoldCrestlogo.png"
   inkscape:export-xdpi="96"
   inkscape:export-ydpi="96"
   xmlns:inkscape="http://www.inkscape.org/namespaces/inkscape"
   xmlns:sodipodi="http://sodipodi.sourceforge.net/DTD/sodipodi-0.dtd"
   xmlns="http://www.w3.org/2000/svg"
   xmlns:svg="http://www.w3.org/2000/svg">
  <defs
     id="defs7" />
  <sodipodi:namedview
     id="namedview7"
     pagecolor="#ffffff"
     bordercolor="#000000"
     borderopacity="0.25"
     inkscape:showpageshadow="2"
     inkscape:pageopacity="0.0"
     inkscape:pagecheckerboard="0"
     inkscape:deskcolor="#d1d1d1"
     inkscape:zoom="5.5378227"
     inkscape:cx="84.780612"
     inkscape:cy="62.93087"
     inkscape:window-width="1920"
     inkscape:window-height="1009"
     inkscape:window-x="-8"
     inkscape:window-y="-8"
     inkscape:window-maximized="1"
     inkscape:current-layer="svg7"
     inkscape:document-units="mm" />
  <rect
     width="75.590553"
     height="9.4207792"
     fill="#4b1e1e"
     id="rect1"
     x="8.816596"
     y="34.563461"
     style="stroke-width:0.047174"
     inkscape:export-filename="images\GoldCrestlogo.png"
     inkscape:export-xdpi="96"
     inkscape:export-ydpi="96" />
  <!-- Mountains -->
  <polygon
     points="300,140 360,220 180,220 "
     fill="#d4a017"
     id="polygon1"
     transform="matrix(0.15084466,0,0,0.15084466,-18.174691,0.76827634)" />
  <polygon
     points="420,100 560,220 280,220 "
     fill="#f2c94c"
     id="polygon2"
     transform="matrix(0.15084466,0,0,0.15084466,-18.174691,0.76827634)" />
  <polygon
     points="540,150 680,220 440,220 "
     fill="#d4a017"
     id="polygon3"
     transform="matrix(0.15084466,0,0,0.15084466,-18.174691,0.76827634)" />
  <!-- Mountain shading -->
  <polygon
     points="300,180 360,220 180,220 "
     fill="#6b3e2e"
     id="polygon4"
     transform="matrix(0.15084466,0,0,0.15084466,-18.174691,0.76827634)" />
  <polygon
     points="420,160 560,220 280,220 "
     fill="#5a2e20"
     id="polygon5"
     transform="matrix(0.15084466,0,0,0.15084466,-18.174691,0.76827634)" />
  <polygon
     points="540,190 680,220 440,220 "
     fill="#6b3e2e"
     id="polygon6"
     transform="matrix(0.15084466,0,0,0.15084466,-18.174691,0.76827634)" />
  <!-- Text -->
  <text
     x="20.143959"
     y="43.202984"
     font-family="Georgia, serif"
     font-size="10.8608px"
     fill="#f2c94c"
     id="text6"
     style="stroke-width:0.150845">Gold</text>
  <text
     x="45.82682"
     y="42.683277"
     font-family="Georgia, serif"
     font-size="10.8608px"
     fill="#c0c0c0"
     id="text7"
     style="stroke-width:0.150845">Crest</text>
</svg>
